<?xml version="1.0" standalone="no"?><!DOCTYPE svg PUBLIC "-//W3C//DTD SVG 1.1//EN" "http://www.w3.org/Graphics/SVG/1.1/DTD/svg11.dtd"><svg t="1573019901421" class="icon" viewBox="0 0 1049 1024" version="1.1" xmlns="http://www.w3.org/2000/svg" p-id="2855" data-spm-anchor-id="a313x.7781069.0.i0" width="32.78125" height="32" xmlns:xlink="http://www.w3.org/1999/xlink"><defs><style type="text/css"></style></defs><path d="M524.590164 0C234.754098 0 0 234.754098 0 524.590164c0 232.131148 150.163934 428.196721 358.688525 497.704918 26.229508 4.590164 36.065574-11.147541 36.065573-24.918033 0-12.459016-0.655738-53.770492-0.655737-97.704918C262.295082 923.934426 228.196721 867.540984 217.704918 838.032787c-5.901639-15.081967-31.47541-61.639344-53.770492-74.098361-18.360656-9.836066-44.590164-34.098361-0.655737-34.754098 41.311475-0.655738 70.819672 38.032787 80.655737 53.770492 47.213115 79.344262 122.622951 57.04918 152.786885 43.278688 4.590164-34.098361 18.360656-57.04918 33.442623-70.163934C313.442623 742.95082 191.47541 697.704918 191.47541 497.04918c0-57.04918 20.327869-104.262295 53.770492-140.983606-5.245902-13.114754-23.606557-66.885246 5.245901-139.016394 0 0 43.934426-13.770492 144.262295 53.770492 41.967213-11.803279 86.557377-17.704918 131.147541-17.704918s89.180328 5.901639 131.147541 17.704918c100.327869-68.196721 144.262295-53.770492 144.262295-53.770492 28.852459 72.131148 10.491803 125.901639 5.245902 139.016394 33.442623 36.721311 53.770492 83.278689 53.770492 140.983606 0 201.311475-122.622951 245.901639-239.344262 259.016394 19.016393 16.393443 35.409836 47.868852 35.409836 97.04918 0 70.163934-0.655738 126.557377-0.655738 144.262295 0 13.770492 9.836066 30.163934 36.065574 24.918033C905.340852 950.206951 1049.122623 749.967738 1049.180328 524.590164 1049.180328 234.754098 814.42623 0 524.590164 0z" p-id="2856"></path></svg>